<?xml version="1.0" encoding="UTF-8" standalone="no"?>
<!DOCTYPE svg PUBLIC "-//W3C//DTD SVG 1.1//EN" "http://www.w3.org/Graphics/SVG/1.1/DTD/svg11.dtd">
<svg width="100%" height="100%" viewBox="0 0 800 600" version="1.1" xmlns="http://www.w3.org/2000/svg" xmlns:xlink="http://www.w3.org/1999/xlink" xml:space="preserve" xmlns:serif="http://www.serif.com/" style="fill-rule:evenodd;clip-rule:evenodd;stroke-linejoin:round;stroke-miterlimit:2;">
    <g transform="matrix(1.28304,0,0,1.78524,-69.0206,-196.228)">
        <g transform="matrix(3.32127,0,0,3.37418,-128.848,-1150.66)">
            <path d="M160.509,429.487C159.917,429.487 159.431,429.297 159.05,428.916C158.67,428.536 158.479,428.05 158.479,427.458C158.479,426.908 158.67,426.443 159.05,426.062C159.431,425.64 159.917,425.428 160.509,425.428C161.058,425.428 161.524,425.64 161.904,426.062C162.327,426.443 162.538,426.908 162.538,427.458C162.538,428.05 162.327,428.536 161.904,428.916C161.524,429.297 161.058,429.487 160.509,429.487ZM160.509,425.428C159.917,425.428 159.431,425.238 159.05,424.857C158.67,424.477 158.479,423.991 158.479,423.399C158.479,422.849 158.67,422.384 159.05,422.004C159.431,421.581 159.917,421.369 160.509,421.369C161.058,421.369 161.524,421.581 161.904,422.004C162.327,422.384 162.538,422.849 162.538,423.399C162.538,423.991 162.327,424.477 161.904,424.857C161.524,425.238 161.058,425.428 160.509,425.428ZM160.509,421.369C159.917,421.369 159.431,421.179 159.05,420.799C158.67,420.418 158.479,419.932 158.479,419.34C158.479,418.79 158.67,418.325 159.05,417.945C159.431,417.522 159.917,417.311 160.509,417.311C161.058,417.311 161.524,417.522 161.904,417.945C162.327,418.325 162.538,418.79 162.538,419.34C162.538,419.932 162.327,420.418 161.904,420.799C161.524,421.179 161.058,421.369 160.509,421.369ZM160.509,417.311C159.917,417.311 159.431,417.12 159.05,416.74C158.67,416.359 158.479,415.873 158.479,415.281C158.479,414.732 158.67,414.267 159.05,413.886C159.431,413.463 159.917,413.252 160.509,413.252C161.058,413.252 161.524,413.463 161.904,413.886C162.327,414.267 162.538,414.732 162.538,415.281C162.538,415.873 162.327,416.359 161.904,416.74C161.524,417.12 161.058,417.311 160.509,417.311ZM160.509,409.193C159.917,409.193 159.431,409.003 159.05,408.622C158.67,408.242 158.479,407.756 158.479,407.164C158.479,406.614 158.67,406.149 159.05,405.768C159.431,405.346 159.917,405.134 160.509,405.134C161.058,405.134 161.524,405.346 161.904,405.768C162.327,406.149 162.538,406.614 162.538,407.164C162.538,407.756 162.327,408.242 161.904,408.622C161.524,409.003 161.058,409.193 160.509,409.193Z" style="fill:rgb(221,177,206);fill-rule:nonzero;stroke:white;stroke-width:0.29px;"/>
            <path d="M172.685,441.663C172.093,441.663 171.607,441.452 171.227,441.029C170.846,440.649 170.656,440.184 170.656,439.634C170.656,439.042 170.846,438.556 171.227,438.175C171.607,437.795 172.093,437.605 172.685,437.605C173.235,437.605 173.7,437.795 174.08,438.175C174.503,438.556 174.715,439.042 174.715,439.634C174.715,440.184 174.503,440.649 174.08,441.029C173.7,441.452 173.235,441.663 172.685,441.663ZM176.744,441.663C176.152,441.663 175.666,441.452 175.285,441.029C174.905,440.649 174.715,440.184 174.715,439.634C174.715,439.042 174.905,438.556 175.285,438.175C175.666,437.795 176.152,437.605 176.744,437.605C177.294,437.605 177.759,437.795 178.139,438.175C178.562,438.556 178.773,439.042 178.773,439.634C178.773,440.184 178.562,440.649 178.139,441.029C177.759,441.452 177.294,441.663 176.744,441.663ZM168.626,437.605C168.035,437.605 167.548,437.393 167.168,436.97C166.787,436.59 166.597,436.125 166.597,435.575C166.597,434.983 166.787,434.497 167.168,434.117C167.548,433.736 168.035,433.546 168.626,433.546C169.176,433.546 169.641,433.736 170.022,434.117C170.444,434.497 170.656,434.983 170.656,435.575C170.656,436.125 170.444,436.59 170.022,436.97C169.641,437.393 169.176,437.605 168.626,437.605ZM180.803,437.605C180.211,437.605 179.725,437.393 179.344,436.97C178.964,436.59 178.773,436.125 178.773,435.575C178.773,434.983 178.964,434.497 179.344,434.117C179.725,433.736 180.211,433.546 180.803,433.546C181.352,433.546 181.818,433.736 182.198,434.117C182.621,434.497 182.832,434.983 182.832,435.575C182.832,436.125 182.621,436.59 182.198,436.97C181.818,437.393 181.352,437.605 180.803,437.605ZM180.803,433.546C180.211,433.546 179.725,433.334 179.344,432.912C178.964,432.531 178.773,432.066 178.773,431.516C178.773,430.925 178.964,430.438 179.344,430.058C179.725,429.677 180.211,429.487 180.803,429.487C181.352,429.487 181.818,429.677 182.198,430.058C182.621,430.438 182.832,430.925 182.832,431.516C182.832,432.066 182.621,432.531 182.198,432.912C181.818,433.334 181.352,433.546 180.803,433.546ZM172.685,429.487C172.093,429.487 171.607,429.297 171.227,428.916C170.846,428.536 170.656,428.05 170.656,427.458C170.656,426.908 170.846,426.443 171.227,426.062C171.607,425.64 172.093,425.428 172.685,425.428C173.235,425.428 173.7,425.64 174.08,426.062C174.503,426.443 174.715,426.908 174.715,427.458C174.715,428.05 174.503,428.536 174.08,428.916C173.7,429.297 173.235,429.487 172.685,429.487ZM176.744,429.487C176.152,429.487 175.666,429.297 175.285,428.916C174.905,428.536 174.715,428.05 174.715,427.458C174.715,426.908 174.905,426.443 175.285,426.062C175.666,425.64 176.152,425.428 176.744,425.428C177.294,425.428 177.759,425.64 178.139,426.062C178.562,426.443 178.773,426.908 178.773,427.458C178.773,428.05 178.562,428.536 178.139,428.916C177.759,429.297 177.294,429.487 176.744,429.487ZM180.803,429.487C180.211,429.487 179.725,429.297 179.344,428.916C178.964,428.536 178.773,428.05 178.773,427.458C178.773,426.908 178.964,426.443 179.344,426.062C179.725,425.64 180.211,425.428 180.803,425.428C181.352,425.428 181.818,425.64 182.198,426.062C182.621,426.443 182.832,426.908 182.832,427.458C182.832,428.05 182.621,428.536 182.198,428.916C181.818,429.297 181.352,429.487 180.803,429.487ZM168.626,425.428C168.035,425.428 167.548,425.238 167.168,424.857C166.787,424.477 166.597,423.991 166.597,423.399C166.597,422.849 166.787,422.384 167.168,422.004C167.548,421.581 168.035,421.369 168.626,421.369C169.176,421.369 169.641,421.581 170.022,422.004C170.444,422.384 170.656,422.849 170.656,423.399C170.656,423.991 170.444,424.477 170.022,424.857C169.641,425.238 169.176,425.428 168.626,425.428ZM180.803,425.428C180.211,425.428 179.725,425.238 179.344,424.857C178.964,424.477 178.773,423.991 178.773,423.399C178.773,422.849 178.964,422.384 179.344,422.004C179.725,421.581 180.211,421.369 180.803,421.369C181.352,421.369 181.818,421.581 182.198,422.004C182.621,422.384 182.832,422.849 182.832,423.399C182.832,423.991 182.621,424.477 182.198,424.857C181.818,425.238 181.352,425.428 180.803,425.428ZM168.626,421.369C168.035,421.369 167.548,421.179 167.168,420.799C166.787,420.418 166.597,419.932 166.597,419.34C166.597,418.79 166.787,418.325 167.168,417.945C167.548,417.522 168.035,417.311 168.626,417.311C169.176,417.311 169.641,417.522 170.022,417.945C170.444,418.325 170.656,418.79 170.656,419.34C170.656,419.932 170.444,420.418 170.022,420.799C169.641,421.179 169.176,421.369 168.626,421.369ZM180.803,421.369C180.211,421.369 179.725,421.179 179.344,420.799C178.964,420.418 178.773,419.932 178.773,419.34C178.773,418.79 178.964,418.325 179.344,417.945C179.725,417.522 180.211,417.311 180.803,417.311C181.352,417.311 181.818,417.522 182.198,417.945C182.621,418.325 182.832,418.79 182.832,419.34C182.832,419.932 182.621,420.418 182.198,420.799C181.818,421.179 181.352,421.369 180.803,421.369ZM172.685,417.311C172.093,417.311 171.607,417.12 171.227,416.74C170.846,416.359 170.656,415.873 170.656,415.281C170.656,414.732 170.846,414.267 171.227,413.886C171.607,413.463 172.093,413.252 172.685,413.252C173.235,413.252 173.7,413.463 174.08,413.886C174.503,414.267 174.715,414.732 174.715,415.281C174.715,415.873 174.503,416.359 174.08,416.74C173.7,417.12 173.235,417.311 172.685,417.311ZM176.744,417.311C176.152,417.311 175.666,417.12 175.285,416.74C174.905,416.359 174.715,415.873 174.715,415.281C174.715,414.732 174.905,414.267 175.285,413.886C175.666,413.463 176.152,413.252 176.744,413.252C177.294,413.252 177.759,413.463 178.139,413.886C178.562,414.267 178.773,414.732 178.773,415.281C178.773,415.873 178.562,416.359 178.139,416.74C177.759,417.12 177.294,417.311 176.744,417.311ZM180.803,417.311C180.211,417.311 179.725,417.12 179.344,416.74C178.964,416.359 178.773,415.873 178.773,415.281C178.773,414.732 178.964,414.267 179.344,413.886C179.725,413.463 180.211,413.252 180.803,413.252C181.352,413.252 181.818,413.463 182.198,413.886C182.621,414.267 182.832,414.732 182.832,415.281C182.832,415.873 182.621,416.359 182.198,416.74C181.818,417.12 181.352,417.311 180.803,417.311Z" style="fill:rgb(221,177,206);fill-rule:nonzero;stroke:white;stroke-width:0.29px;"/>
            <path d="M192.979,429.487C192.387,429.487 191.901,429.297 191.521,428.916C191.14,428.536 190.95,428.05 190.95,427.458C190.95,426.908 191.14,426.443 191.521,426.062C191.901,425.64 192.387,425.428 192.979,425.428C193.529,425.428 193.994,425.64 194.374,426.062C194.797,426.443 195.009,426.908 195.009,427.458C195.009,428.05 194.797,428.536 194.374,428.916C193.994,429.297 193.529,429.487 192.979,429.487ZM197.038,429.487C196.446,429.487 195.96,429.297 195.579,428.916C195.199,428.536 195.009,428.05 195.009,427.458C195.009,426.908 195.199,426.443 195.579,426.062C195.96,425.64 196.446,425.428 197.038,425.428C197.588,425.428 198.053,425.64 198.433,426.062C198.856,426.443 199.067,426.908 199.067,427.458C199.067,428.05 198.856,428.536 198.433,428.916C198.053,429.297 197.588,429.487 197.038,429.487ZM188.92,425.428C188.329,425.428 187.842,425.238 187.462,424.857C187.081,424.477 186.891,423.991 186.891,423.399C186.891,422.849 187.081,422.384 187.462,422.004C187.842,421.581 188.329,421.369 188.92,421.369C189.47,421.369 189.935,421.581 190.316,422.004C190.738,422.384 190.95,422.849 190.95,423.399C190.95,423.991 190.738,424.477 190.316,424.857C189.935,425.238 189.47,425.428 188.92,425.428ZM201.097,425.428C200.505,425.428 200.019,425.238 199.638,424.857C199.258,424.477 199.067,423.991 199.067,423.399C199.067,422.849 199.258,422.384 199.638,422.004C200.019,421.581 200.505,421.369 201.097,421.369C201.647,421.369 202.112,421.581 202.492,422.004C202.915,422.384 203.126,422.849 203.126,423.399C203.126,423.991 202.915,424.477 202.492,424.857C202.112,425.238 201.647,425.428 201.097,425.428ZM188.92,421.369C188.329,421.369 187.842,421.179 187.462,420.799C187.081,420.418 186.891,419.932 186.891,419.34C186.891,418.79 187.081,418.325 187.462,417.945C187.842,417.522 188.329,417.311 188.92,417.311C189.47,417.311 189.935,417.522 190.316,417.945C190.738,418.325 190.95,418.79 190.95,419.34C190.95,419.932 190.738,420.418 190.316,420.799C189.935,421.179 189.47,421.369 188.92,421.369ZM201.097,421.369C200.505,421.369 200.019,421.179 199.638,420.799C199.258,420.418 199.067,419.932 199.067,419.34C199.067,418.79 199.258,418.325 199.638,417.945C200.019,417.522 200.505,417.311 201.097,417.311C201.647,417.311 202.112,417.522 202.492,417.945C202.915,418.325 203.126,418.79 203.126,419.34C203.126,419.932 202.915,420.418 202.492,420.799C202.112,421.179 201.647,421.369 201.097,421.369ZM192.979,417.311C192.387,417.311 191.901,417.12 191.521,416.74C191.14,416.359 190.95,415.873 190.95,415.281C190.95,414.732 191.14,414.267 191.521,413.886C191.901,413.463 192.387,413.252 192.979,413.252C193.529,413.252 193.994,413.463 194.374,413.886C194.797,414.267 195.009,414.732 195.009,415.281C195.009,415.873 194.797,416.359 194.374,416.74C193.994,417.12 193.529,417.311 192.979,417.311ZM197.038,417.311C196.446,417.311 195.96,417.12 195.579,416.74C195.199,416.359 195.009,415.873 195.009,415.281C195.009,414.732 195.199,414.267 195.579,413.886C195.96,413.463 196.446,413.252 197.038,413.252C197.588,413.252 198.053,413.463 198.433,413.886C198.856,414.267 199.067,414.732 199.067,415.281C199.067,415.873 198.856,416.359 198.433,416.74C198.053,417.12 197.588,417.311 197.038,417.311Z" style="fill:rgb(221,177,206);fill-rule:nonzero;stroke:white;stroke-width:0.29px;"/>
        </g>
        <g transform="matrix(1,0,0,1,-203.84,86.5736)">
            <g transform="matrix(1,0,0,1.11927,173.429,-73.4973)">
                <path d="M215.731,201.797L231.698,201.797L231.698,253.638L215.731,253.638L215.731,201.797ZM215.731,184.274L231.698,184.274L231.698,200.138L215.731,200.138L215.731,184.274Z" style="fill:rgb(157,0,69);fill-rule:nonzero;stroke:white;stroke-width:0.89px;"/>
            </g>
            <g transform="matrix(1,0,0,1.11927,173.429,-73.4973)">
                <path d="M233.876,253.535L321.281,253.638L321.281,237.671L249.843,237.671L249.843,218.075L321.281,218.075L321.281,201.797L233.772,201.797L233.876,253.638L233.876,253.535Z" style="fill:rgb(157,0,69);fill-rule:nonzero;stroke:white;stroke-width:0.89px;"/>
            </g>
            <g transform="matrix(1,0,0,1.11927,173.429,-73.4973)">
                <path d="M323.355,253.638L323.355,183.859L339.218,183.859L339.218,201.797L410.656,201.797L410.656,253.638L394.585,253.638L394.585,217.971L339.218,217.971L339.218,253.638L323.355,253.638Z" style="fill:rgb(157,0,69);fill-rule:nonzero;stroke:white;stroke-width:0.89px;"/>
            </g>
        </g>
    </g>
</svg>
